GIL04_free3_ik
nRows=3
nColumns=375

# SIMM Motion File Header:
name GIL04_free3_ik
datacolumns 375
datarows 3
otherdata 1
range 0.35833000 0.37500000
endheader
time	pelvis_tx	pelvis_ty	pelvis_tz	pelvis_tilt	pelvis_list	pelvis_rotation	hip_flexion_r	hip_adduction_r	hip_rotation_r	knee_angle_r	ankle_angle_r	hip_flexion_l	hip_adduction_l	hip_rotation_l	knee_angle_l	ankle_angle_l	lumbar_extension	lumbar_bending	lumbar_rotation	subtalar_angle_r	mtp_angle_r	subtalar_angle_l	mtp_angle_l	asis_r_px	asis_r_py	asis_r_pz	asis_l_px	asis_l_py	asis_l_pz	midasis_px	midasis_py	midasis_pz	psis_r_px	psis_r_py	psis_r_pz	psis_l_px	psis_l_py	psis_l_pz	hip_r_px	hip_r_py	hip_r_pz	hip_l_px	hip_l_py	hip_l_pz	midhip_px	midhip_py	midhip_pz	epicondLat_r_px	epicondLat_r_py	epicondLat_r_pz	epicondMed_r_px	epicondMed_r_py	epicondMed_r_pz	thighwand_r_px	thighwand_r_py	thighwand_r_pz	upperleg1_r_px	upperleg1_r_py	upperleg1_r_pz	upperleg2_r_px	upperleg2_r_py	upperleg2_r_pz	malleolusLat_r_px	malleolusLat_r_py	malleolusLat_r_pz	malleolusMedv_r_px	malleolusMedv_r_py	malleolusMedv_r_pz	shankwand_r_px	shankwand_r_py	shankwand_r_pz	lowerleg1_r_px	lowerleg1_r_py	lowerleg1_r_pz	knee_r_px	knee_r_py	knee_r_pz	ankle_r_px	ankle_r_py	ankle_r_pz	toe_r_px	toe_r_py	toe_r_pz	epicondLat_l_px	epicondLat_l_py	epicondLat_l_pz	epicondMed_l_px	epicondMed_l_py	epicondMed_l_pz	thighwand_l_px	thighwand_l_py	thighwand_l_pz	upperleg1_l_px	upperleg1_l_py	upperleg1_l_pz	upperleg2_l_px	upperleg2_l_py	upperleg2_l_pz	malleolusLat_l_px	malleolusLat_l_py	malleolusLat_l_pz	malleolusMedv_l_px	malleolusMedv_l_py	malleolusMedv_l_pz	shankwand_l_px	shankwand_l_py	shankwand_l_pz	lowerleg1_l_px	lowerleg1_l_py	lowerleg1_l_pz	knee_l_px	knee_l_py	knee_l_pz	ankle_l_px	ankle_l_py	ankle_l_pz	toe_l_px	toe_l_py	toe_l_pz	subclavicle_r_px	subclavicle_r_py	subclavicle_r_pz	subclavicle_l_px	subclavicle_l_py	subclavicle_l_pz	neck_px	neck_py	neck_pz	sternalnotch_px	sternalnotch_py	sternalnotch_pz	xyphoidprocess_px	xyphoidprocess_py	xyphoidprocess_pz	midhip_tx	midhip_ty	midhip_tz	hip_r_tx	hip_r_ty	hip_r_tz	hip_l_tx	hip_l_ty	hip_l_tz	knee_r_tx	knee_r_ty	knee_r_tz	knee_l_tx	knee_l_ty	knee_l_tz	ankle_r_tx	ankle_r_ty	ankle_r_tz	ankle_l_tx	ankle_l_ty	ankle_l_tz	midasis_tx	midasis_ty	midasis_tz	asis_r_tx	asis_r_ty	asis_r_tz	asis_l_tx	asis_l_ty	asis_l_tz	psis_r_tx	psis_r_ty	psis_r_tz	psis_l_tx	psis_l_ty	psis_l_tz	epicondLat_r_tx	epicondLat_r_ty	epicondLat_r_tz	epicondLat_l_tx	epicondLat_l_ty	epicondLat_l_tz	epicondMed_r_tx	epicondMed_r_ty	epicondMed_r_tz	epicondMed_l_tx	epicondMed_l_ty	epicondMed_l_tz	malleolusLat_r_tx	malleolusLat_r_ty	malleolusLat_r_tz	malleolusLat_l_tx	malleolusLat_l_ty	malleolusLat_l_tz	malleolusMedv_r_tx	malleolusMedv_r_ty	malleolusMedv_r_tz	malleolusMedv_l_tx	malleolusMedv_l_ty	malleolusMedv_l_tz	neck_tx	neck_ty	neck_tz	subclavicle_r_tx	subclavicle_r_ty	subclavicle_r_tz	subclavicle_l_tx	subclavicle_l_ty	subclavicle_l_tz	sternalnotch_tx	sternalnotch_ty	sternalnotch_tz	xyphoidprocess_tx	xyphoidprocess_ty	xyphoidprocess_tz	thighwand_r_tx	thighwand_r_ty	thighwand_r_tz	thighwand_l_tx	thighwand_l_ty	thighwand_l_tz	upperleg1_r_tx	upperleg1_r_ty	upperleg1_r_tz	upperleg1_l_tx	upperleg1_l_ty	upperleg1_l_tz	upperleg2_r_tx	upperleg2_r_ty	upperleg2_r_tz	upperleg2_l_tx	upperleg2_l_ty	upperleg2_l_tz	shankwand_r_tx	shankwand_r_ty	shankwand_r_tz	shankwand_l_tx	shankwand_l_ty	shankwand_l_tz	lowerleg1_r_tx	lowerleg1_r_ty	lowerleg1_r_tz	lowerleg1_l_tx	lowerleg1_l_ty	lowerleg1_l_tz	toe_r_tx	toe_r_ty	toe_r_tz	toe_l_tx	toe_l_ty	toe_l_tz	ground_force_vx	ground_force_vy	ground_force_vz	ground_force_px	ground_force_py	ground_force_pz	ground_force_vx	ground_force_vy	ground_force_vz	ground_force_px	ground_force_py	ground_force_pz	ground_torque_x	ground_torque_y	ground_torque_z	ground_torque_x	ground_torque_y	ground_torque_z	ground_marker_px	ground_marker_py	ground_marker_pz	ground_marker_px	ground_marker_py	ground_marker_pz	ground_marker_px	ground_marker_py	ground_marker_pz	ground_marker_px	ground_marker_py	ground_marker_pz	ground_marker_px	ground_marker_py	ground_marker_pz	ground_marker_px	ground_marker_py	ground_marker_pz	ground_marker_px	ground_marker_py	ground_marker_pz	ground_marker_px	ground_marker_py	ground_marker_pz	ground_marker_px	ground_marker_py	ground_marker_pz	ground_marker_px	ground_marker_py	ground_marker_pz	ground_marker_px	ground_marker_py	ground_marker_pz	ground_marker_px	ground_marker_py	ground_marker_pz	ground_marker_px	ground_marker_py	ground_marker_pz	ground_marker_px	ground_marker_py	ground_marker_pz	ground_marker_px	ground_marker_py	ground_marker_pz	ground_marker_px	ground_marker_py	ground_marker_pz	ground_marker_px	ground_marker_py	ground_marker_pz	ground_marker_px	ground_marker_py	ground_marker_pz	ground_marker_px	ground_marker_py	ground_marker_pz	ground_marker_px	ground_marker_py	ground_marker_pz	ground_marker_px	ground_marker_py	ground_marker_pz	ground_marker_px	ground_marker_py	ground_marker_pz	ground_marker_px	ground_marker_py	ground_marker_pz	ground_marker_px	ground_marker_py	ground_marker_pz	ground_marker_px	ground_marker_py	ground_marker_pz	ground_marker_px	ground_marker_py	ground_marker_pz	ground_marker_px	ground_marker_py	ground_marker_pz	ground_marker_px	ground_marker_py	ground_marker_pz	ground_marker_px	ground_marker_py	ground_marker_pz	ground_marker_px	ground_marker_py	ground_marker_pz	ground_marker_px	ground_marker_py	ground_marker_pz	ground_marker_px	ground_marker_py	ground_marker_pz	ground_marker_px	ground_marker_py	ground_marker_pz	ground_marker_px	ground_marker_py	ground_marker_pz	ground_marker_px	ground_marker_py	ground_marker_pz	ground_marker_px	ground_marker_py	ground_marker_pz	ground_marker_px	ground_marker_py	ground_marker_pz
      0.35833000	      1.40558659	      0.74092320	     -0.21081822	     -1.84147740	      0.28842831	      2.76864121	     31.13728734	     -1.34823729	     -0.36759334	    -45.16896433	      2.75896005	     -2.53083205	      5.82403996	     -2.99016035	     -6.44325859	      7.20639520	     -3.74316274	     -2.03623568	      2.80137420	      0.00000000	      0.00000000	      0.00000000	      0.00000000	      1.51366883	      0.72550082	     -0.13612324	      1.51069953	      0.71750587	     -0.32276058	      1.41578687	      0.74059774	     -0.21131174	      1.37992943	      0.79549640	     -0.21114548	      1.37750309	      0.78832371	     -0.26555582	      1.35545722	      0.69395076	     -0.14770119	      1.34959282	      0.69475245	     -0.26943632	      1.35252502	      0.69435160	     -0.20856876	      1.55478793	      0.41679247	     -0.09207803	      1.55131821	      0.41444809	     -0.19250265	      1.51493145	      0.51488101	     -0.02233648	      1.52553044	      0.58004777	     -0.09325821	      1.56561256	      0.50565877	     -0.10224231	      1.45284171	      0.08263103	     -0.07844972	      1.45904824	      0.08538605	     -0.13817844	      1.46571667	      0.19361415	     -0.01587989	      1.49346927	      0.23743901	     -0.08034085	      1.51984951	      0.40590631	     -0.14969021	      1.43270053	      0.09847294	     -0.14366405	      1.54760216	      0.03258283	     -0.10156084	      1.35954653	      0.34808873	     -0.31036627	      1.37070076	      0.34682512	     -0.20684260	      1.50865337	      0.42493387	     -0.31329963	      1.45900770	      0.49508758	     -0.25524849	      1.43151477	      0.41272307	     -0.24243523	      1.26809207	      0.03846031	     -0.27933650	      1.27695751	      0.04325608	     -0.21646164	      1.38009645	      0.11180936	     -0.29631338	      1.33817876	      0.18187919	     -0.27227311	      1.32337568	      0.37039520	     -0.23692755	      1.26528869	      0.05805473	     -0.20205817	      1.36756370	      0.00513203	     -0.26889661	      1.38316799	      1.13775629	     -0.15695023	      1.38183375	      1.14715353	     -0.27196039	      1.30161708	      1.14021596	     -0.21286200	      1.38413064	      1.13032962	     -0.21804906	      1.47518053	      1.01876951	     -0.22755400	      1.36128200	      0.68719000	     -0.20372300	      1.35645000	      0.69374600	     -0.14031200	      1.35006100	      0.69470300	     -0.26597500	      1.51755700	      0.40650800	     -0.14425500	      1.32758700	      0.38285900	     -0.23106900	      1.43108400	      0.10093900	     -0.13704900	      1.26455700	      0.06204100	     -0.22396700	      1.41883800	      0.75778700	     -0.20599300	      1.42359500	      0.75707500	     -0.11243500	      1.41408200	      0.75850000	     -0.29955100	      1.27558800	      0.79486300	     -0.17376100	      1.26945400	      0.79325700	     -0.22842500	      1.51929200	      0.40678800	     -0.09378600	      1.32198500	      0.37773100	     -0.28048900	      1.52629000	      0.40183700	     -0.19100900	      1.33252300	      0.38472600	     -0.18184500	      1.42661800	      0.10298400	     -0.10391100	      1.25795500	      0.06258800	     -0.25782500	      1.43299400	      0.10816000	     -0.16319300	      1.25762600	      0.07140900	     -0.19553200	      1.30824200	      1.14440500	     -0.21296400	      1.39325500	      1.09967600	     -0.15203300	      1.38661800	      1.09867400	     -0.28053600	      1.38398600	      1.08711600	     -0.21840300	      1.40643300	      0.94531100	     -0.21776400	      1.48101600	      0.48214500	     -0.01268200	      1.46410800	      0.47657500	     -0.28911900	      1.48375500	      0.55452300	     -0.07860800	      1.40417800	      0.54111100	     -0.23251700	      1.53151600	      0.48672100	     -0.09369600	      1.38620200	      0.45632000	     -0.21791000	      1.44276500	      0.20239300	     -0.03175400	      1.36365200	      0.14289800	     -0.26677000	      1.47025300	      0.25199000	     -0.09142600	      1.31652000	      0.21129500	     -0.24732700	      1.51655700	      0.06412500	     -0.12913700	      1.35352400	      0.03633300	     -0.22320800	      0.00000000	      0.00000000	      0.00000000	      1.80940771	      0.00000000	     -0.17738148	     -2.21186331	    237.21511438	      1.43497520	      1.35292969	      0.00000000	     -0.22872614	      0.00000000	      0.00000000	      0.00000000	      0.00000000	     -0.97482214	      0.00000000	      1.36128187	      0.68718970	     -0.20372346	      1.35644972	      0.69374585	     -0.14031173	      1.35006106	      0.69470322	     -0.26597467	      1.51755655	      0.40650827	     -0.14425506	      1.32758677	      0.38285869	     -0.23106875	      1.43108380	      0.10093851	     -0.13704877	      1.26455688	      0.06204077	     -0.22396736	      1.41883826	      0.75778741	     -0.20599319	      1.42359483	      0.75707459	     -0.11243513	      1.41408169	      0.75850022	     -0.29955125	      1.27558827	      0.79486299	     -0.17376082	      1.26945436	      0.79325664	     -0.22842519	      1.51929152	      0.40678844	     -0.09378564	      1.32198465	      0.37773067	     -0.28048858	      1.52629018	      0.40183699	     -0.19100893	      1.33252311	      0.38472554	     -0.18184489	      1.42661786	      0.10298377	     -0.10391080	      1.25795460	      0.06258844	     -0.25782529	      1.43299389	      0.10815970	     -0.16319327	      1.25762582	      0.07140852	     -0.19553222	      1.30824184	      1.14440453	     -0.21296404	      1.39325476	      1.09967589	     -0.15203276	      1.38661826	      1.09867442	     -0.28053567	      1.38398635	      1.08711600	     -0.21840301	      1.40643334	      0.94531089	     -0.21776356	      1.48101628	      0.48214504	     -0.01268231	      1.46410763	      0.47657511	     -0.28911942	      1.48375487	      0.55452305	     -0.07860794	      1.40417790	      0.54111141	     -0.23251669	      1.53151608	      0.48672116	     -0.09369629	      1.38620210	      0.45631996	     -0.21790962	      1.44276536	      0.20239262	     -0.03175423	      1.36365247	      0.14289840	     -0.26677021	      1.47025263	      0.25198999	     -0.09142626	      1.31651974	      0.21129489	     -0.24732696	      1.51655650	      0.06412475	     -0.12913705	      1.35352397	      0.03633347	     -0.22320844
      0.36667000	      1.41424715	      0.73988050	     -0.21044577	     -1.83810130	      0.19361656	      2.91864176	     31.51957842	     -1.24875383	     -0.97609709	    -42.34936940	      3.05269666	     -3.66235552	      5.72614794	     -3.24808896	     -5.66391603	      7.27974656	     -3.76205429	     -1.96849219	      2.51520889	      0.00000000	      0.00000000	      0.00000000	      0.00000000	      1.52252953	      0.72458273	     -0.13601551	      1.51906255	      0.71629458	     -0.32263147	      1.42444610	      0.73955495	     -0.21096602	      1.38858527	      0.79445137	     -0.21079020	      1.38601420	      0.78719310	     -0.26518255	      1.36428984	      0.69300381	     -0.14712148	      1.35810041	      0.69361397	     -0.26884163	      1.36119512	      0.69330889	     -0.20798155	      1.56512525	      0.41685957	     -0.09186860	      1.56224737	      0.41504681	     -0.19232292	      1.52422196	      0.51429739	     -0.02182164	      1.53479685	      0.57992295	     -0.09232266	      1.57542055	      0.50584988	     -0.10148286	      1.48086038	      0.07935848	     -0.08103906	      1.48721166	      0.08287489	     -0.14071257	      1.48720264	      0.19044412	     -0.01765328	      1.51280006	      0.23619965	     -0.08166300	      1.53010099	      0.40635866	     -0.14972964	      1.46020373	      0.09451119	     -0.14625593	      1.57865109	      0.03545467	     -0.10383986	      1.36076469	      0.34680314	     -0.30964872	      1.37262657	      0.34535727	     -0.20620613	      1.51136741	      0.42062166	     -0.31368288	      1.46356149	      0.49178708	     -0.25531982	      1.43450365	      0.40999959	     -0.24226604	      1.26761825	      0.03841535	     -0.27824506	      1.27703847	      0.04308438	     -0.21544137	      1.37996846	      0.11102825	     -0.29607971	      1.33872456	      0.18135246	     -0.27162049	      1.32548460	      0.36992587	     -0.23596243	      1.26558969	      0.05794573	     -0.20092630	      1.36699063	      0.00455186	     -0.26871503	      1.39176402	      1.13675178	     -0.15666346	      1.39070858	      1.14604702	     -0.27168480	      1.31034857	      1.13917380	     -0.21277394	      1.39287292	      1.12927068	     -0.21775317	      1.48392876	      1.01768873	     -0.22693938	      1.36994100	      0.68639800	     -0.20354200	      1.36515000	      0.69303200	     -0.14017600	      1.35835300	      0.69395700	     -0.26581800	      1.52828100	      0.40666000	     -0.14558300	      1.32990100	      0.38287000	     -0.23087800	      1.45875600	      0.09561900	     -0.13776100	      1.26484300	      0.06250500	     -0.22336400	      1.42731900	      0.75706300	     -0.20607700	      1.43238000	      0.75637400	     -0.11252200	      1.42225700	      0.75775100	     -0.29963100	      1.28435300	      0.79405100	     -0.17313900	      1.27788000	      0.79254500	     -0.22786800	      1.52976500	      0.40655300	     -0.09510500	      1.32381900	      0.37788000	     -0.28025500	      1.53580600	      0.40168200	     -0.19246100	      1.33119300	      0.38637000	     -0.18106300	      1.45416100	      0.09747900	     -0.10462900	      1.25809000	      0.06308300	     -0.25719200	      1.46044800	      0.10272700	     -0.16394000	      1.25801100	      0.07180200	     -0.19485400	      1.31715200	      1.14373700	     -0.21285200	      1.40182400	      1.09880700	     -0.15160600	      1.39562100	      1.09769200	     -0.28022900	      1.39285000	      1.08623500	     -0.21812700	      1.41475400	      0.94433400	     -0.21718300	      1.49058000	      0.48104200	     -0.01369000	      1.46783100	      0.47418200	     -0.28996600	      1.49259000	      0.55357100	     -0.07921400	      1.40978400	      0.53967400	     -0.23259900	      1.54077500	      0.48612500	     -0.09477000	      1.38781800	      0.45486600	     -0.21743900	      1.46468200	      0.19784300	     -0.03259200	      1.36413800	      0.14284200	     -0.26657700	      1.48923500	      0.24865500	     -0.09232000	      1.31726000	      0.21146800	     -0.24695500	      1.54633100	      0.06408700	     -0.13009300	      1.35356000	      0.03637100	     -0.22317000	      0.00000000	      0.00000000	      0.00000000	      1.81309351	      0.00000000	     -0.17687093	      0.06908218	    238.34953839	      1.21347568	      1.35400342	      0.00000000	     -0.22789781	      0.00000000	      0.00000000	      0.00000000	      0.00000000	     -1.08198145	      0.00000000	      1.36994100	      0.68639839	     -0.20354217	      1.36515021	      0.69303179	     -0.14017639	      1.35835302	      0.69395655	     -0.26581815	      1.52828121	      0.40666017	     -0.14558348	      1.32990110	      0.38286963	     -0.23087797	      1.45875561	      0.09561903	     -0.13776065	      1.26484263	      0.06250513	     -0.22336404	      1.42731857	      0.75706285	     -0.20607650	      1.43237972	      0.75637424	     -0.11252239	      1.42225730	      0.75775146	     -0.29963061	      1.28435349	      0.79405051	     -0.17313871	      1.27787983	      0.79254514	     -0.22786832	      1.52976549	      0.40655252	     -0.09510541	      1.32381880	      0.37788004	     -0.28025520	      1.53580606	      0.40168160	     -0.19246124	      1.33119333	      0.38636988	     -0.18106343	      1.45416057	      0.09747943	     -0.10462949	      1.25808990	      0.06308307	     -0.25719178	      1.46044838	      0.10272735	     -0.16394033	      1.25801134	      0.07180202	     -0.19485365	      1.31715190	      1.14373696	     -0.21285188	      1.40182424	      1.09880686	     -0.15160571	      1.39562130	      1.09769249	     -0.28022903	      1.39284968	      1.08623481	     -0.21812724	      1.41475356	      0.94433427	     -0.21718314	      1.49057972	      0.48104227	     -0.01369012	      1.46783102	      0.47418192	     -0.28996643	      1.49259007	      0.55357146	     -0.07921377	      1.40978420	      0.53967363	     -0.23259887	      1.54077518	      0.48612490	     -0.09476981	      1.38781750	      0.45486635	     -0.21743867	      1.46468210	      0.19784349	     -0.03259240	      1.36413848	      0.14284223	     -0.26657745	      1.48923504	      0.24865504	     -0.09231960	      1.31725991	      0.21146823	     -0.24695490	      1.54633057	      0.06408673	     -0.13009259	      1.35356033	      0.03637050	     -0.22317012
      0.37500000	      1.42296341	      0.73862974	     -0.21007180	     -1.85437355	      0.11319719	      3.08309625	     31.83497728	     -1.17515394	     -1.63283113	    -39.41142156	      3.26653147	     -4.74029253	      5.62937971	     -3.50415273	     -4.96594226	      7.38561847	     -3.69656262	     -1.96202853	      2.80218433	      0.00000000	      0.00000000	      0.00000000	      0.00000000	      1.53145803	      0.72339936	     -0.13593738	      1.52744496	      0.71486772	     -0.32253142	      1.43316071	      0.73830067	     -0.21062133	      1.39731562	      0.79320725	     -0.21041299	      1.39458406	      0.78587845	     -0.26478805	      1.37317799	      0.69184994	     -0.14654082	      1.36663404	      0.69230238	     -0.26824311	      1.36990602	      0.69207616	     -0.20739196	      1.57505738	      0.41640655	     -0.09159507	      1.57283143	      0.41516308	     -0.19207461	      1.53321190	      0.51322797	     -0.02125053	      1.54390374	      0.57931465	     -0.09130174	      1.58496134	      0.50550206	     -0.10062857	      1.50878621	      0.07661271	     -0.08356517	      1.51529184	      0.08090425	     -0.14317130	      1.50847657	      0.18742675	     -0.01939233	      1.53184480	      0.23500330	     -0.08292530	      1.53994787	      0.40634489	     -0.14973008	      1.48770558	      0.09104117	     -0.14881062	      1.60919825	      0.03890772	     -0.10593629	      1.36220562	      0.34550187	     -0.30898455	      1.37478591	      0.34383413	     -0.20563022	      1.51419288	      0.41635423	     -0.31412691	      1.46821481	      0.48844873	     -0.25543645	      1.43765507	      0.40724774	     -0.24215284	      1.26712497	      0.03836575	     -0.27726612	      1.27710153	      0.04287992	     -0.21453706	      1.37986883	      0.11015224	     -0.29594227	      1.33936226	      0.18075313	     -0.27105172	      1.32784473	      0.36937345	     -0.23504556	      1.26588637	      0.05780792	     -0.19990845	      1.36637819	      0.00394736	     -0.26867475	      1.40067018	      1.13559233	     -0.15677058	      1.39870196	      1.14481044	     -0.27178612	      1.31881344	      1.13792160	     -0.21223926	      1.40130276	      1.12807141	     -0.21786218	      1.49235998	      1.01654545	     -0.22769219	      1.37862700	      0.68542600	     -0.20338000	      1.37389300	      0.69212300	     -0.14004900	      1.36665800	      0.69304900	     -0.26566600	      1.53860600	      0.40638600	     -0.14686200	      1.33243700	      0.38281100	     -0.23074100	      1.48650400	      0.09082200	     -0.13859200	      1.26510800	      0.06298600	     -0.22281900	      1.43584800	      0.75613800	     -0.20616600	      1.44123600	      0.75544800	     -0.11261800	      1.43046000	      0.75682700	     -0.29971400	      1.29319000	      0.79309000	     -0.17249800	      1.28637600	      0.79168100	     -0.22728000	      1.53981000	      0.40587700	     -0.09637900	      1.32587200	      0.37798200	     -0.28007200	      1.54450000	      0.40071300	     -0.19364000	      1.33358400	      0.38642200	     -0.18120900	      1.48173500	      0.09247700	     -0.10547500	      1.25824700	      0.06359300	     -0.25662400	      1.48790700	      0.09779300	     -0.16472800	      1.25828600	      0.07225800	     -0.19427600	      1.32606000	      1.14285600	     -0.21271500	      1.40950900	      1.09699600	     -0.15109000	      1.40464800	      1.09656200	     -0.27993200	      1.40163200	      1.08511700	     -0.21783000	      1.42180100	      0.94273900	     -0.21737300	      1.49977900	      0.47954900	     -0.01460100	      1.47165000	      0.47181300	     -0.29087000	      1.50112700	      0.55224600	     -0.07993300	      1.41533900	      0.53811800	     -0.23283600	      1.54953400	      0.48496000	     -0.09580700	      1.39149400	      0.45364500	     -0.21775700	      1.48641900	      0.19345000	     -0.03351800	      1.36471300	      0.14270900	     -0.26633600	      1.50795000	      0.24534900	     -0.09322400	      1.31816600	      0.21154700	     -0.24657800	      1.57586200	      0.06458700	     -0.13119500	      1.35355200	      0.03641200	     -0.22316400	      0.00000000	      0.00000000	      0.00000000	      1.81646497	      0.00000000	     -0.17630165	      2.40943423	    239.97404802	      1.62592633	      1.35514270	      0.00000000	     -0.22693159	      0.00000000	      0.00000000	      0.00000000	      0.00000000	     -1.15877869	      0.00000000	      1.37862659	      0.68542564	     -0.20337999	      1.37389326	      0.69212306	     -0.14004909	      1.36665797	      0.69304907	     -0.26566640	      1.53860617	      0.40638646	     -0.14686224	      1.33243692	      0.38281116	     -0.23074107	      1.48650384	      0.09082182	     -0.13859238	      1.26510751	      0.06298629	     -0.22281852	      1.43584776	      0.75613773	     -0.20616609	      1.44123602	      0.75544816	     -0.11261833	      1.43045962	      0.75682735	     -0.29971385	      1.29319024	      0.79309005	     -0.17249835	      1.28637612	      0.79168051	     -0.22728017	      1.53981018	      0.40587682	     -0.09637917	      1.32587206	      0.37798178	     -0.28007239	      1.54449964	      0.40071267	     -0.19364004	      1.33358431	      0.38642168	     -0.18120937	      1.48173511	      0.09247708	     -0.10547486	      1.25824726	      0.06359309	     -0.25662413	      1.48790717	      0.09779319	     -0.16472815	      1.25828552	      0.07225848	     -0.19427611	      1.32606006	      1.14285564	     -0.21271512	      1.40950918	      1.09699583	     -0.15109017	      1.40464759	      1.09656227	     -0.27993160	      1.40163183	      1.08511698	     -0.21783039	      1.42180073	      0.94273901	     -0.21737334	      1.49977863	      0.47954929	     -0.01460113	      1.47164953	      0.47181287	     -0.29086998	      1.50112736	      0.55224603	     -0.07993255	      1.41533899	      0.53811789	     -0.23283617	      1.54953420	      0.48495954	     -0.09580725	      1.39149392	      0.45364529	     -0.21775743	      1.48641872	      0.19344996	     -0.03351776	      1.36471272	      0.14270875	     -0.26633590	      1.50795019	      0.24534854	     -0.09322397	      1.31816626	      0.21154730	     -0.24657787	      1.57586205	      0.06458681	     -0.13119541	      1.35355163	      0.03641218	     -0.22316402
